<?xml version="1.0" encoding="UTF-8"?>
<svg version="1.1" xmlns="http://www.w3.org/2000/svg" width="500" height="500">
<path d="M0 0 C4.46034294 1.41920003 7.32847558 3.86616727 10.625 7.0625 C15.36985502 11.54269003 20.26618198 15.72577976 25.3515625 19.8203125 C27.97275119 21.97757399 30.49154281 24.21311 33 26.5 C36.41739372 29.61458668 39.9052235 32.5918662 43.5 35.5 C47.96276213 39.11032442 52.22719533 42.88427929 56.46875 46.75 C59.0884481 49.07862053 61.7751531 51.29562947 64.5 53.5 C68.96276213 57.11032442 73.22719533 60.88427929 77.46875 64.75 C80.0884481 67.07862053 82.7751531 69.29562947 85.5 71.5 C89.96276213 75.11032442 94.22719533 78.88427929 98.46875 82.75 C101.0884481 85.07862053 103.7751531 87.29562947 106.5 89.5 C110.96276213 93.11032442 115.22719533 96.88427929 119.46875 100.75 C122.0884481 103.07862053 124.7751531 105.29562947 127.5 107.5 C132.00730702 111.14907508 136.34117402 114.94410483 140.62890625 118.84765625 C144.04348111 121.94721267 147.51874107 124.97577785 151 128 C149.73063053 130.73362753 148.37591334 132.92280422 146.3828125 135.1796875 C145.86452881 135.77144775 145.34624512 136.36320801 144.81225586 136.97290039 C144.25546143 137.60059326 143.69866699 138.22828613 143.125 138.875 C141.94103136 140.22493171 140.75744601 141.57519967 139.57421875 142.92578125 C138.97528809 143.60721191 138.37635742 144.28864258 137.75927734 144.99072266 C135.12887302 147.99491744 132.5317638 151.02709935 129.9375 154.0625 C128.94664164 155.22007524 127.95575621 156.37762731 126.96484375 157.53515625 C126.47612793 158.10637207 125.98741211 158.67758789 125.48388672 159.26611328 C122.99104476 162.17894046 120.49537234 165.08934061 118 168 C116.9999866 169.16665518 115.99998659 170.33332184 115 171.5 C82 210 82 210 49 248.5 C48.50459717 249.0779834 48.00919434 249.6559668 47.4987793 250.25146484 C46.50290197 251.41329469 45.50697133 252.57507886 44.51098633 253.73681641 C41.94746128 256.72710606 39.3849836 259.71828363 36.82421875 262.7109375 C31.58169828 268.83584638 26.33301115 274.95341693 21 281 C15.51777916 277.09918902 10.55493883 272.82594449 5.64013672 268.24536133 C1.45595178 264.36604101 -2.90685637 260.75837639 -7.3515625 257.1796875 C-9.97275119 255.02242601 -12.49154281 252.78689 -15 250.5 C-18.41739372 247.38541332 -21.9052235 244.4081338 -25.5 241.5 C-29.96276213 237.88967558 -34.22719533 234.11572071 -38.46875 230.25 C-41.0884481 227.92137947 -43.7751531 225.70437053 -46.5 223.5 C-50.0947765 220.5918662 -53.58260628 217.61458668 -57 214.5 C-60.31989486 211.47717579 -63.69764112 208.57487839 -67.1875 205.75 C-73.62711993 200.53481485 -79.85455403 195.08668248 -86.10351562 189.64648438 C-89.07855159 187.06362617 -92.06941083 184.49939568 -95.0625 181.9375 C-95.63516602 181.44733398 -96.20783203 180.95716797 -96.79785156 180.45214844 C-97.95240438 179.4641114 -99.10702666 178.47615552 -100.26171875 177.48828125 C-102.01952918 175.98327951 -103.77564446 174.47632297 -105.53125 172.96875 C-113.32488309 166.27759417 -121.1496648 159.62453535 -129 153 C-127.58079997 148.53965706 -125.13383273 145.67152442 -121.9375 142.375 C-117.45730997 137.63014498 -113.27422024 132.73381802 -109.1796875 127.6484375 C-107.02242601 125.02724881 -104.78689 122.50845719 -102.5 120 C-99.38541332 116.58260628 -96.4081338 113.0947765 -93.5 109.5 C-89.88967558 105.03723787 -86.11572071 100.77280467 -82.25 96.53125 C-79.92137947 93.9115519 -77.70437053 91.2248469 -75.5 88.5 C-71.88967558 84.03723787 -68.11572071 79.77280467 -64.25 75.53125 C-61.92137947 72.9115519 -59.70437053 70.2248469 -57.5 67.5 C-53.88967558 63.03723787 -50.11572071 58.77280467 -46.25 54.53125 C-43.92137947 51.9115519 -41.70437053 49.2248469 -39.5 46.5 C-35.88967558 42.03723787 -32.11572071 37.77280467 -28.25 33.53125 C-25.13187651 30.02336108 -22.2046824 26.37135511 -19.25390625 22.72265625 C-17.04853296 20.05862647 -14.7682369 17.49211558 -12.4375 14.9375 C-8.05956074 10.13564057 -3.99810004 5.12018261 0 0 Z M6 66 C4.2950975 67.74448059 2.63972037 69.50809395 1 71.3125 C0.5045166 71.85503418 0.0090332 72.39756836 -0.50146484 72.95654297 C-4.43338613 77.29717215 -8.14731147 81.78972136 -11.8203125 86.3515625 C-13.97757399 88.97275119 -16.21311 91.49154281 -18.5 94 C-21.61458668 97.41739372 -24.5918662 100.9052235 -27.5 104.5 C-31.11032442 108.96276213 -34.88427929 113.22719533 -38.75 117.46875 C-41.86258505 120.97040818 -44.78479997 124.61570714 -47.73046875 128.2578125 C-50.69805365 131.84343143 -53.80985185 135.28286231 -56.95703125 138.7109375 C-61.19541412 142.81462061 -61.19541412 142.81462061 -63 148 C-61.42713316 149.41438406 -59.78860004 150.75604401 -58.125 152.0625 C-54.31164438 155.11025865 -50.60191191 158.20500341 -47 161.5 C-43.58260628 164.61458668 -40.0947765 167.5918662 -36.5 170.5 C-32.03579543 174.11149134 -27.76997886 177.88660694 -23.52734375 181.75390625 C-20.93037607 184.06187598 -18.26595987 186.25555863 -15.5625 188.4375 C-11.75912497 191.51336588 -8.09917348 194.68753166 -4.5 198 C2.04372943 204.01797786 8.85267914 209.70998758 16 215 C20.64075322 209.94234697 25.18250335 204.83785742 29.5 199.5 C33.11032442 195.03723787 36.88427929 190.77280467 40.75 186.53125 C43.07862053 183.9115519 45.29562947 181.2248469 47.5 178.5 C50.4081338 174.9052235 53.38541332 171.41739372 56.5 168 C60.31315396 163.81210505 63.90042142 159.48454426 67.45703125 155.078125 C71.09370439 150.67613048 74.86519321 146.39311049 78.65917969 142.1262207 C79.19317383 141.51866943 79.72716797 140.91111816 80.27734375 140.28515625 C80.99265259 139.47896851 80.99265259 139.47896851 81.72241211 138.65649414 C83.10400052 136.86515507 84.0524461 135.04926999 85 133 C78.81973119 127.27398693 72.55889453 121.76495674 66.00390625 116.46875 C60.5369753 111.97577164 55.23324209 107.29253937 49.89648438 102.64648438 C46.92144841 100.06362617 43.93058917 97.49939568 40.9375 94.9375 C40.36483398 94.44733398 39.79216797 93.95716797 39.20214844 93.45214844 C38.04759562 92.4641114 36.89297334 91.47615552 35.73828125 90.48828125 C33.98047082 88.98327951 32.22435554 87.47632297 30.46875 85.96875 C27.56816471 83.47813437 24.6651373 80.99040163 21.75976562 78.50537109 C20.55224632 77.47241271 19.34524181 76.43885231 18.13867188 75.40478516 C16.32380463 73.850604 14.5060614 72.29985576 12.6875 70.75 C11.85109985 70.03251587 11.85109985 70.03251587 10.99780273 69.30053711 C8.78213393 67.00749724 8.78213393 67.00749724 6 66 Z " fill="#2C354C" transform="translate(239,48)"/>
<path d="M0 0 C4.10599832 2.05299916 7.206053 4.57294572 10.625 7.5625 C11.24673096 8.10044189 11.86846191 8.63838379 12.5090332 9.19262695 C16.92186005 13.02276719 21.2575358 16.93384574 25.58203125 20.86328125 C28.12413644 23.10969731 30.73379395 25.24621053 33.375 27.375 C37.92780507 31.05571847 42.23417411 34.92648648 46.5168457 38.91137695 C50.62760957 42.71385014 54.92266523 46.24263299 59.28515625 49.75390625 C63.42573234 53.17956272 67.35444502 56.82935826 71.25255871 60.52710819 C73.08862172 62.13316371 73.08862172 62.13316371 75.66447163 63.75602627 C83.38563607 69.1468565 83.38563607 69.1468565 85.0025692 74.02411079 C85.35200238 77.62198442 85.36236533 81.07646386 85.2487793 84.68969727 C85.24567087 86.05061082 85.24742915 87.41154278 85.25364685 88.77244568 C85.25678536 92.44286164 85.19243156 96.10927073 85.11533332 99.77876019 C85.04625682 103.62222935 85.04008337 107.46580509 85.02705383 111.30979919 C84.99295343 118.57773594 84.90281484 125.84383822 84.79220945 133.11096948 C84.64590134 142.93863245 84.58681905 152.76680221 84.52268505 162.59528065 C84.41945491 178.06489278 84.20027032 193.53063498 84 209 C56.28 209 28.56 209 0 209 C0 140.03 0 71.06 0 0 Z " fill="#2C354C" transform="translate(111,231)"/>
<path d="M0 0 C4.31517147 2.87678098 7.71314849 5.4047044 11.4375 8.875 C12.38625 9.74511719 13.335 10.61523438 14.3125 11.51171875 C15.92534357 13.0050056 17.53174938 14.50535741 19.125 16.01953125 C21.08051058 17.8732154 21.08051058 17.8732154 24 20 C27.09111837 19.68876785 28.87567636 18.5442936 31.171875 16.5234375 C31.75042236 16.02038086 32.32896973 15.51732422 32.92504883 14.99902344 C33.52728271 14.4630957 34.1295166 13.92716797 34.75 13.375 C35.67945435 12.56337402 35.67945435 12.56337402 36.62768555 11.73535156 C38.42478668 10.16391543 40.21374969 8.58374991 42 7 C43.60346855 5.58254322 45.20747021 4.16568871 46.8125 2.75 C47.71935547 1.93789063 47.71935547 1.93789063 48.64453125 1.109375 C50 0 50 0 51 0 C51 35.31 51 70.62 51 107 C34.17 107 17.34 107 0 107 C0 71.69 0 36.38 0 0 Z " fill="#2C354C" transform="translate(231,333)"/>
<path d="M0 0 C3.80093132 2.12822284 5.807749 4.41280797 7.75 8.375 C9.15536156 13.7956803 8.74719804 18.21918984 6.75 23.375 C3.94394689 28.05175518 0.91207731 29.74034218 -4.25 31.375 C-10.49372063 32.06874674 -15.14066978 31.17308618 -20.25 27.375 C-24.30675229 22.40547844 -24.8361757 18.31357293 -24.56640625 11.9609375 C-24.13947854 8.47172587 -23.3310393 6.21908704 -21.25 3.375 C-14.60530526 -1.7469522 -7.80717614 -3.51687747 0 0 Z " fill="#2C354C" transform="translate(256.25,173.625)"/>
</svg>
